<?xml version="1.0" encoding="utf-8"?><svg xmlns="http://www.w3.org/2000/svg" xmlns:xlink="http://www.w3.org/1999/xlink"><symbol viewBox="0 0 27 16" id="behance" xmlns="http://www.w3.org/2000/svg"><path d="M13.754 11.016c0 4.77-5.11 4.613-5.11 4.613H.27V0h8.372c2.545 0 4.553 1.365 4.553 4.161 0 2.797-2.455 2.975-2.455 2.975 3.237 0 3.013 3.88 3.013 3.88zM3.96 6.266h4.393c.759 0 1.429-.236 1.429-1.862 0-1.625-1.139-1.625-1.139-1.625H3.96zm6.38 4.555c0-2.168-1.697-2.146-1.697-2.146H3.96v4.177h4.467c.672-.019 1.912-.223 1.912-2.031zm6.77-9.9h6.638v1.925H17.11zm9.061 9.84h-8.337c0 2.903 2.832 2.72 2.832 2.72 2.674 0 2.58-1.682 2.58-1.682h2.831c0 4.462-5.506 4.157-5.506 4.157-6.606 0-6.182-5.975-6.182-5.975s-.005-6.004 6.182-6.004c6.512 0 5.6 6.783 5.6 6.783zm-5.537-4.495c-2.485 0-2.832 2.41-2.832 2.41h5.286s.032-2.41-2.454-2.41z"/></symbol><symbol viewBox="0 0 7 18" id="facebook" xmlns="http://www.w3.org/2000/svg"><path d="M1.513 3.486v2.478H0v3.03h1.513V18h3.108V8.995h2.086s.195-1.453.29-3.042H4.633V3.881c0-.31.339-.727.674-.727H7V0H4.698C1.436 0 1.513 3.033 1.513 3.486z"/></symbol><symbol viewBox="0 0 18 18" id="instagram" xmlns="http://www.w3.org/2000/svg"><path d="M18 4.967v8.065A4.973 4.973 0 0113.032 18H4.967A4.973 4.973 0 010 13.032V4.967A4.973 4.973 0 014.967 0h8.065A4.973 4.973 0 0118 4.967zm-1.597 8.065V4.967a3.374 3.374 0 00-3.37-3.37H4.966a3.374 3.374 0 00-3.37 3.37v8.065a3.374 3.374 0 003.37 3.37h8.066a3.374 3.374 0 003.37-3.37zM13.638 9A4.643 4.643 0 019 13.638 4.643 4.643 0 014.362 9 4.643 4.643 0 019 4.362 4.643 4.643 0 0113.638 9zm-1.597 0A3.045 3.045 0 009 5.959a3.045 3.045 0 00-3.041 3.04 3.045 3.045 0 003.04 3.042A3.045 3.045 0 0012.042 9zm2.62-5.65a1.176 1.176 0 010 1.657c-.218.217-.52.343-.828.343a1.18 1.18 0 01-.828-.343 1.181 1.181 0 01-.344-.828 1.176 1.176 0 011.172-1.172c.308 0 .61.125.828.343z"/></symbol><symbol viewBox="0 0 24 22" id="logo" xmlns="http://www.w3.org/2000/svg"><defs><clipPath id="da"><path d="M0 22V3h6l2-3h8l2 3h6v19zM12 9a3 3 0 100 6 3 3 0 000-6z"/></clipPath></defs><path d="M0 22V3h6l2-3h8l2 3h6v19zM12 9a3 3 0 100 6 3 3 0 000-6z" clip-path="url(#da)"/></symbol><symbol viewBox="0 0 32.666 32.666" id="ph" xmlns="http://www.w3.org/2000/svg"><path d="M28.189 16.504h-1.666c0-5.437-4.422-9.858-9.856-9.858l-.001-1.664c6.355-.003 11.523 5.167 11.523 11.522zM16.666 7.856l-.001 1.664a6.987 6.987 0 016.981 6.983l1.666-.001c0-4.767-3.876-8.646-8.646-8.646zM16.333 0C7.326 0 0 7.326 0 16.334c0 9.006 7.326 16.332 16.333 16.332a1.007 1.007 0 000-2.016c-7.896 0-14.318-6.424-14.318-14.316 0-7.896 6.422-14.319 14.318-14.319S30.65 8.439 30.65 16.334c0 3.299-1.756 6.568-4.269 7.954a6.172 6.172 0 01-2.959.761 4.733 4.733 0 001.591-1.529c.08-.121.186-.228.238-.359.328-.789.357-1.684.555-2.518.243-1.064-4.658-3.143-5.084-1.814-.154.492-.39 2.048-.699 2.458-.275.366-.953.192-1.377-.168-1.117-.952-2.364-2.351-3.458-3.457l.002-.001-.092-.092c-.031-.029-.062-.062-.093-.092v.002c-1.106-1.096-2.506-2.34-3.457-3.459-.36-.424-.534-1.102-.168-1.377.41-.311 1.966-.543 2.458-.699 1.326-.424-.75-5.328-1.816-5.084-.832.195-1.727.227-2.516.553-.134.057-.238.16-.359.24-2.799 1.774-3.16 6.082-.428 9.292a75.688 75.688 0 003.245 3.576l-.006.004c.031.031.063.06.095.09.03.031.059.062.088.095l.006-.006c1.16 1.118 2.535 2.765 4.769 4.255 4.703 3.141 8.312 2.264 10.438 1.098 3.67-2.021 5.312-6.338 5.312-9.719C32.666 7.326 25.339 0 16.333 0z"/></symbol><symbol viewBox="0 0 25.625 25.625" id="phone" xmlns="http://www.w3.org/2000/svg"><path d="M22.079 17.835c-1.548-1.324-3.119-2.126-4.648-.804l-.913.799c-.668.58-1.91 3.29-6.712-2.234-4.801-5.517-1.944-6.376-1.275-6.951l.918-.8c1.521-1.325.947-2.993-.15-4.71l-.662-1.04C7.535.382 6.335-.743 4.81.58l-.824.72c-.674.491-2.558 2.087-3.015 5.119-.55 3.638 1.185 7.804 5.16 12.375 3.97 4.573 7.857 6.87 11.539 6.83 3.06-.033 4.908-1.675 5.486-2.272l.827-.721c1.521-1.322.576-2.668-.973-3.995l-.931-.801z"/></symbol><symbol viewBox="0 0 19 16" id="twitter" xmlns="http://www.w3.org/2000/svg"><path d="M18.476.296a7.676 7.676 0 01-2.477.98A3.822 3.822 0 0013.155 0c-2.153 0-3.899 1.81-3.899 4.04 0 .315.035.624.101.92C6.118 4.79 3.246 3.181 1.323.737a4.125 4.125 0 00-.527 2.03c0 1.403.69 2.64 1.734 3.363a3.783 3.783 0 01-1.765-.507v.05c0 1.958 1.343 3.59 3.126 3.963a3.808 3.808 0 01-1.76.068c.495 1.605 1.934 2.773 3.64 2.807A7.648 7.648 0 010 14.185 10.76 10.76 0 005.975 16c7.17 0 11.09-6.157 11.09-11.496l-.013-.523A8.009 8.009 0 0019 1.893c-.7.32-1.45.539-2.238.636A4.04 4.04 0 0018.476.296z"/></symbol><symbol viewBox="0 0 1280 720" id="vk" xmlns="http://www.w3.org/2000/svg"><path d="M481.7 2.6c-15.2 3.1-25.7 7.2-34.3 13.3-13.1 9.3-23.4 21.3-23.4 27.3 0 3.2 1.6 4.1 9.5 5.3 14.9 2.2 33.4 10.7 43.3 19.9 8.9 8.3 13.6 18 18.6 38.1 9.3 37.8 12.1 101.5 6.6 152.5-4.8 44.8-7.4 57.9-14.9 73.5-6.1 12.9-8.9 16.1-15.4 18-15.9 4.7-29.4-.9-50.8-21.2-22.5-21.4-46.6-58.2-74.8-114-5-9.8-12.5-24.1-16.7-31.8-11.2-20.4-39.8-79.9-49.4-102.5-4.5-10.7-9.6-22.4-11.3-26-5.4-11.3-16.6-20.4-31.8-25.7l-7.4-2.5-57.5.1C93.5 27 33.7 28 26.5 29.1c-6.4 1.1-15.7 4.9-18.9 7.7-1 .9-3.2 3.7-4.8 6.1C.3 46.9 0 48.3 0 55.3c0 10.2 1.7 15.1 17.3 50.2 47.1 106 109.6 221.9 163.2 303 36.2 54.6 91.9 129 118.7 158.5 9.9 10.9 31.3 31.4 43.2 41.4 25.5 21.5 76.7 55.6 109.1 72.7 30.4 16 74.5 30.8 109.9 36.9 11.2 1.9 16 2 83.2 2 70.6 0 71.4 0 77.1-2.2 10.2-3.7 17.7-9.7 21.4-17 4-7.8 5.1-14.8 5.9-37.8.9-23.8 2.4-35.2 6.7-51.4 5.5-21 11.5-32 24.7-45.2 9.9-9.9 14.7-12.4 23.5-12.4 17.3.1 41.6 18.4 72.8 54.8 33.5 39.1 62 68.9 78.8 82.4 12.1 9.7 29.3 19.5 44.6 25.4l8.8 3.4H1127c115 0 118.2-.1 123.9-2 11.2-3.7 20.5-10.4 24.8-17.8 2.5-4.2 2.8-5.9 3.1-15.2.5-12.7-2.1-24.9-7.2-35.1-17.6-34.7-61.6-87.3-114.4-136.9-36.9-34.7-70.4-68.7-75.9-77.1-6.5-10-9.7-19.9-9.6-29.8.2-19.3 11.2-37.2 68.9-112.3 47.1-61.3 64.4-84.8 85.9-117.3 24.7-37.2 40.8-67.3 48.6-90.5 3.8-11.1 4.3-13.8 4.7-24 .4-11.1.3-11.7-2.5-17-6.9-13.2-28.8-19.9-58.1-17.9-5.7.4-55.9 1-111.5 1.4-110.1.7-108.9.6-116.9 6.4C982.4 41 980 45.2 966.2 79c-26.4 64.7-56.8 121.6-98.7 185-22.8 34.5-38 53.3-55.9 69.1-12.8 11.4-21.5 16.9-26.5 16.9-7.9 0-14.2-2.6-19.8-8.2-10.3-10.1-14.9-23.9-17.3-51.3-1.1-12.4 0-102.8 1.5-134.5 1.5-29.1 2.2-77.2 1.4-89.7-1.7-27.7-10-46.9-23.5-54.8-6.6-3.9-16.6-7.4-27.2-9.6C691.2.1 686 0 592.1.1h-98.6l-11.8 2.5z"/></symbol></svg>