<?xml version="1.0" encoding="utf-8"?><svg xmlns="http://www.w3.org/2000/svg" xmlns:xlink="http://www.w3.org/1999/xlink"><symbol viewBox="0 0 27 16" id="behance" xmlns="http://www.w3.org/2000/svg"><path d="M13.754 11.016c0 4.77-5.11 4.613-5.11 4.613H.27V0h8.372c2.545 0 4.553 1.365 4.553 4.161 0 2.797-2.455 2.975-2.455 2.975 3.237 0 3.013 3.88 3.013 3.88zM3.96 6.266h4.393c.759 0 1.429-.236 1.429-1.862 0-1.625-1.139-1.625-1.139-1.625H3.96zm6.38 4.555c0-2.168-1.697-2.146-1.697-2.146H3.96v4.177h4.467c.672-.019 1.912-.223 1.912-2.031zm6.77-9.9h6.638v1.925H17.11zm9.061 9.84h-8.337c0 2.903 2.832 2.72 2.832 2.72 2.674 0 2.58-1.682 2.58-1.682h2.831c0 4.462-5.506 4.157-5.506 4.157-6.606 0-6.182-5.975-6.182-5.975s-.005-6.004 6.182-6.004c6.512 0 5.6 6.783 5.6 6.783zm-5.537-4.495c-2.485 0-2.832 2.41-2.832 2.41h5.286s.032-2.41-2.454-2.41z"/></symbol><symbol viewBox="0 0 7 18" id="facebook" xmlns="http://www.w3.org/2000/svg"><path d="M1.513 3.486v2.478H0v3.03h1.513V18h3.108V8.995h2.086s.195-1.453.29-3.042H4.633V3.881c0-.31.339-.727.674-.727H7V0H4.698C1.436 0 1.513 3.033 1.513 3.486z"/></symbol><symbol viewBox="0 0 18 18" id="instagram" xmlns="http://www.w3.org/2000/svg"><path d="M18 4.967v8.065A4.973 4.973 0 0113.032 18H4.967A4.973 4.973 0 010 13.032V4.967A4.973 4.973 0 014.967 0h8.065A4.973 4.973 0 0118 4.967zm-1.597 8.065V4.967a3.374 3.374 0 00-3.37-3.37H4.966a3.374 3.374 0 00-3.37 3.37v8.065a3.374 3.374 0 003.37 3.37h8.066a3.374 3.374 0 003.37-3.37zM13.638 9A4.643 4.643 0 019 13.638 4.643 4.643 0 014.362 9 4.643 4.643 0 019 4.362 4.643 4.643 0 0113.638 9zm-1.597 0A3.045 3.045 0 009 5.959a3.045 3.045 0 00-3.041 3.04 3.045 3.045 0 003.04 3.042A3.045 3.045 0 0012.042 9zm2.62-5.65a1.176 1.176 0 010 1.657c-.218.217-.52.343-.828.343a1.18 1.18 0 01-.828-.343 1.181 1.181 0 01-.344-.828 1.176 1.176 0 011.172-1.172c.308 0 .61.125.828.343z"/></symbol><symbol viewBox="0 0 24 22" id="logo" xmlns="http://www.w3.org/2000/svg"><defs><clipPath id="da"><path d="M0 22V3h6l2-3h8l2 3h6v19zM12 9a3 3 0 100 6 3 3 0 000-6z"/></clipPath></defs><path d="M0 22V3h6l2-3h8l2 3h6v19zM12 9a3 3 0 100 6 3 3 0 000-6z" clip-path="url(#da)"/></symbol><symbol viewBox="0 0 19 16" id="twitter" xmlns="http://www.w3.org/2000/svg"><path d="M18.476.296a7.676 7.676 0 01-2.477.98A3.822 3.822 0 0013.155 0c-2.153 0-3.899 1.81-3.899 4.04 0 .315.035.624.101.92C6.118 4.79 3.246 3.181 1.323.737a4.125 4.125 0 00-.527 2.03c0 1.403.69 2.64 1.734 3.363a3.783 3.783 0 01-1.765-.507v.05c0 1.958 1.343 3.59 3.126 3.963a3.808 3.808 0 01-1.76.068c.495 1.605 1.934 2.773 3.64 2.807A7.648 7.648 0 010 14.185 10.76 10.76 0 005.975 16c7.17 0 11.09-6.157 11.09-11.496l-.013-.523A8.009 8.009 0 0019 1.893c-.7.32-1.45.539-2.238.636A4.04 4.04 0 0018.476.296z"/></symbol></svg>