<svg xmlns="http://www.w3.org/2000/svg" width="27" height="16" viewBox="0 0 27 16"><g><g><path fill="#2c2a28" d="M13.754 11.016c0 4.77-5.11 4.613-5.11 4.613H.27V0h8.372c2.545 0 4.553 1.365 4.553 4.161 0 2.797-2.455 2.975-2.455 2.975 3.237 0 3.013 3.88 3.013 3.88zM3.96 6.266h4.393c.759 0 1.429-.236 1.429-1.862 0-1.625-1.139-1.625-1.139-1.625H3.96zm6.38 4.555c0-2.168-1.697-2.146-1.697-2.146H3.96v4.177h4.467c.672-.019 1.912-.223 1.912-2.031zm6.77-9.9h6.638v1.925H17.11zm9.061 9.84h-8.337c0 2.903 2.832 2.72 2.832 2.72 2.674 0 2.58-1.682 2.58-1.682h2.831c0 4.462-5.506 4.157-5.506 4.157-6.606 0-6.182-5.975-6.182-5.975s-.005-6.004 6.182-6.004c6.512 0 5.6 6.783 5.6 6.783zm-5.537-4.495c-2.485 0-2.832 2.41-2.832 2.41h5.286s.032-2.41-2.454-2.41z"/></g></g></svg>