<svg xmlns="http://www.w3.org/2000/svg" width="18" height="18" viewBox="0 0 18 18"><g><g><path fill="#2c2a28" d="M18 4.967v8.065A4.973 4.973 0 0 1 13.032 18H4.967A4.973 4.973 0 0 1 0 13.032V4.967A4.973 4.973 0 0 1 4.967 0h8.065A4.973 4.973 0 0 1 18 4.967zm-1.597 8.065V4.967a3.374 3.374 0 0 0-3.37-3.37H4.966a3.374 3.374 0 0 0-3.37 3.37v8.065a3.374 3.374 0 0 0 3.37 3.37h8.066a3.374 3.374 0 0 0 3.37-3.37zM13.638 9A4.643 4.643 0 0 1 9 13.638 4.643 4.643 0 0 1 4.362 9 4.643 4.643 0 0 1 9 4.362 4.643 4.643 0 0 1 13.638 9zm-1.597 0A3.045 3.045 0 0 0 9 5.959a3.045 3.045 0 0 0-3.041 3.04 3.045 3.045 0 0 0 3.04 3.042A3.045 3.045 0 0 0 12.042 9zm2.62-5.65a1.176 1.176 0 0 1 0 1.657c-.218.217-.52.343-.828.343a1.18 1.18 0 0 1-.828-.343 1.181 1.181 0 0 1-.344-.828 1.176 1.176 0 0 1 1.172-1.172c.308 0 .61.125.828.343z"/></g></g></svg>