<svg xmlns="http://www.w3.org/2000/svg" width="19" height="16" viewBox="0 0 19 16"><g><g><path fill="#2c2a28" d="M18.476.296a7.676 7.676 0 0 1-2.477.98A3.822 3.822 0 0 0 13.155 0c-2.153 0-3.899 1.81-3.899 4.04 0 .315.035.624.101.92C6.118 4.79 3.246 3.181 1.323.737a4.125 4.125 0 0 0-.527 2.03c0 1.403.69 2.64 1.734 3.363a3.783 3.783 0 0 1-1.765-.507v.05c0 1.958 1.343 3.59 3.126 3.963a3.808 3.808 0 0 1-1.76.068c.495 1.605 1.934 2.773 3.64 2.807A7.648 7.648 0 0 1 0 14.185 10.76 10.76 0 0 0 5.975 16c7.17 0 11.09-6.157 11.09-11.496l-.013-.523A8.009 8.009 0 0 0 19 1.893c-.7.32-1.45.539-2.238.636A4.04 4.04 0 0 0 18.476.296z"/></g></g></svg>